<svg id="_13-layers" data-name="13-layers" xmlns="http://www.w3.org/2000/svg" width="168.416" height="25.91"
     viewBox="0 0 168.416 25.91">
    <defs>
        <clipPath id="clip-path">
            <path id="Path_21" data-name="Path 21" d="M0,1.2H12.048V20.951H0Z" transform="translate(0 -1.2)"/>
        </clipPath>
        <clipPath id="clip-path-2">
            <path id="Path_23" data-name="Path 23" d="M0,26.22H168.416V.31H0Z" transform="translate(0 -0.31)"/>
        </clipPath>
        <linearGradient id="linear-gradient" x1="0.938" x2="0.239" y2="1" gradientUnits="objectBoundingBox">
            <stop offset="0" stop-color="#eadba1"/>
            <stop offset="1" stop-color="#d1b568"/>
        </linearGradient>
    </defs>
    <g id="Group_40" data-name="Group 40">
        <g id="Group_31" data-name="Group 31" transform="translate(0 0.721)">
            <g id="Group_30" data-name="Group 30" clip-path="url(#clip-path)">
                <path id="Path_20" data-name="Path 20"
                      d="M2.018,3.185h10.03V1.2H3.273L.009,1.2,0,20.951H2.018V12.23h8.941V10.1l-8.941,0Z"
                      transform="translate(0 -1.2)"/>
            </g>
        </g>
        <g id="Group_32" data-name="Group 32" clip-path="url(#clip-path-2)">
            <path id="Path_22" data-name="Path 22" d="M25,20.743h1.619V1.31H25Z" transform="translate(-4.758 -0.5)"/>
        </g>
        <g id="Group_33" data-name="Group 33" clip-path="url(#clip-path-2)">
            <path id="Path_24" data-name="Path 24"
                  d="M49.893,19.043q-1.222,1.7-4.218,1.7H38V1.31h7.675a4.745,4.745,0,0,1,3.932,1.541,5.437,5.437,0,0,1,1.239,3.5q0,3.531-2.5,4.3a3.088,3.088,0,0,1,1.824,1.42,5.8,5.8,0,0,1,.789,3.253,6.235,6.235,0,0,1-1.062,3.716ZM40.042,9.592h5.633q3.158,0,3.157-3.158T45.674,3.274H40.042Zm0,9.177h5.633q3.266,0,3.265-3.5a4.221,4.221,0,0,0-.816-2.652,2.9,2.9,0,0,0-2.449-1.06H40.042Z"
                  transform="translate(-7.232 -0.5)"/>
        </g>
        <g id="Group_34" data-name="Group 34" clip-path="url(#clip-path-2)">
            <path id="Path_26" data-name="Path 26"
                  d="M99,20.743h2.024V4.973l10.553,15.77h2V1.31h-2V17.08L101.051,1.31H99Z"
                  transform="translate(-18.84 -0.5)"/>
        </g>
        <g id="Group_35" data-name="Group 35" clip-path="url(#clip-path-2)">
            <path id="Path_28" data-name="Path 28"
                  d="M136.258,1.31l6.936,19.433h-2.376l-1.7-5.415h-7.883l-1.781,5.415H127L134.26,1.31Zm2.159,12.044-3.185-9.043-3.267,9.043Z"
                  transform="translate(-24.169 -0.5)"/>
        </g>
        <g id="Group_36" data-name="Group 36" clip-path="url(#clip-path-2)">
            <path id="Path_30" data-name="Path 30" d="M164.765,1.31H151V3.274h5.8V20.743H158.8V3.274h5.962Z"
                  transform="translate(-28.736 -0.5)"/>
        </g>
        <g id="Group_37" data-name="Group 37" clip-path="url(#clip-path-2)">
            <path id="Path_32" data-name="Path 32" d="M178,20.743h1.619V1.31H178Z" transform="translate(-33.875 -0.5)"/>
        </g>
        <g id="Group_38" data-name="Group 38" clip-path="url(#clip-path-2)">
            <path id="Path_34" data-name="Path 34"
                  d="M204.765,1.31h-2.12l-4.816,8.15-4.712-8.15H191l5.546,9.582-5.469,9.851h2.12l4.631-8.176,4.686,8.176h2.12l-5.522-9.851Z"
                  transform="translate(-36.349 -0.5)"/>
        </g>
        <g id="Group_39" data-name="Group 39" clip-path="url(#clip-path-2)">
            <path id="Path_36" data-name="Path 36"
                  d="M73.526.31a10.662,10.662,0,0,1,.987,21.264V26.22H72.538V21.574A10.676,10.676,0,0,1,70.616.731V2.845a8.664,8.664,0,0,0,1.923,16.711V2.376l-.012,0V.359C72.856.327,73.189.31,73.526.31Zm.987,19.247a8.661,8.661,0,0,0,0-17.182V19.557"
                  transform="translate(-11.989 -0.31)" fill="url(#linear-gradient)"/>
        </g>
        
    </g>
</svg>
